<svg aria-hidden="true" style="position: absolute; width: 0; height: 0; overflow: hidden;" version="1.1" xmlns="http://www.w3.org/2000/svg" xmlns:xlink="http://www.w3.org/1999/xlink">
<defs>
<symbol id="cv" viewBox="0 0 32 32">
    <path d="M24.667 32h-17.333c-1.84-0.002-3.331-1.493-3.333-3.333v-25.334c0-1.837 1.495-3.333 3.333-3.333h17.333c1.839 0 3.333 1.496 3.333 3.333v25.333c0 1.837-1.495 3.333-3.333 3.333zM7.333 1.333c-1.103 0-2 0.897-2 2v25.333c0 1.103 0.897 2 2 2h17.333c1.103 0 2-0.897 2-2v-25.333c0-1.103-0.897-2-2-2z"></path>
    <path d="M23.333 22.667h-14.667c-0.368 0-0.667-0.298-0.667-0.667s0.298-0.667 0.667-0.667v0h14.667c0.368 0 0.667 0.298 0.667 0.667s-0.298 0.667-0.667 0.667v0zM23.333 17.333h-14.667c-0.368 0-0.667-0.298-0.667-0.667s0.298-0.667 0.667-0.667v0h14.667c0.368 0 0.667 0.298 0.667 0.667s-0.298 0.667-0.667 0.667v0zM23.333 28h-14.667c-0.368 0-0.667-0.298-0.667-0.667s0.298-0.667 0.667-0.667v0h14.667c0.368 0 0.667 0.298 0.667 0.667s-0.298 0.667-0.667 0.667v0zM14 12h-2.667c-1.103 0-2-0.897-2-2v-4c0-1.103 0.897-2 2-2h2.667c0.368 0 0.667 0.298 0.667 0.667s-0.298 0.667-0.667 0.667v0h-2.667c-0.368 0-0.667 0.298-0.667 0.667v0 4c0 0.368 0.298 0.667 0.667 0.667v0h2.667c0.368 0 0.667 0.298 0.667 0.667s-0.298 0.667-0.667 0.667v0zM20 12c-0 0-0 0-0 0-0.3 0-0.553-0.198-0.637-0.47l-0.001-0.005-2-6.667c-0.022-0.064-0.035-0.138-0.035-0.214 0-0.368 0.298-0.667 0.667-0.667 0.308 0 0.567 0.209 0.644 0.492l0.001 0.005 1.363 4.539 1.361-4.537c0.078-0.288 0.337-0.497 0.645-0.497 0.368 0 0.667 0.298 0.667 0.667 0 0.077-0.013 0.15-0.037 0.219l-1.999 6.662c-0.085 0.276-0.338 0.473-0.637 0.473-0 0-0 0-0 0h0z"></path>
</symbol>
<symbol id="tick" viewBox="0 0 32 32">
    <path stroke-linejoin="round" stroke-linecap="round" stroke-miterlimit="4" stroke-width="6.1538" d="M6 15.596l7.321 7.321 13.596-13.596"></path>
</symbol>
</defs>
</svg>
